<svg
    xmlns="http://www.w3.org/2000/svg"
    width="144"
    height="121"
    viewBox="0 0 144 121"
    fill="none"
  >
    <path
      d="M35.9982 -5.00879H18C18 64.5811 74.4084 121 143.998 121V102.999C84.3472 102.999 35.9982 54.6422 35.9982 -5.00879Z"
      fill="#6FAED9"
    />
    <path
      d="M143.999 -76.9991V-95C94.2896 -95 54 -54.7104 54 -5.0088C54 44.7007 94.2896 85.0009 143.999 85.0009V67C104.231 67 72.0009 34.7619 72.0009 -5.00616C72.0009 -44.761 104.231 -76.9991 143.999 -76.9991Z"
      fill="#6FAED9"
    />
    <path
      d="M144 -59.001C114.17 -59.001 90 -34.8307 90 -5.0089C90 24.8208 114.17 48.999 144 48.999V-5.00099L198 -5.0089C198 -34.8307 173.832 -59.001 144 -59.001Z"
      fill="#6FAED9"
    />
  </svg>