<svg width="73" height="38" viewBox="0 0 73 38" fill="none" xmlns="http://www.w3.org/2000/svg">
<g id="Logo">
<path id="Vector" d="M67.9006 11.2007C67.9148 11.6016 67.8209 11.7341 67.3647 11.7249C65.8007 11.6961 64.813 11.7362 63.2491 11.7002C62.7558 11.6889 62.6837 11.8369 62.6859 12.2552C62.7012 17.0478 62.6903 21.8393 62.7056 26.6308C62.7077 27.0686 62.6302 27.2443 62.1053 27.2238C61.003 27.1806 59.8941 27.1816 58.7896 27.2228C58.2571 27.2423 58.0933 27.1436 58.0966 26.5968C58.1239 21.8249 58.1064 17.0539 58.1228 12.2819C58.125 11.8359 58.0257 11.693 57.5225 11.7002C55.7709 11.7228 54.017 11.7023 52.2653 11.6725C51.9084 11.6663 51.712 11.767 51.5199 12.0528C50.4285 13.6725 49.3197 15.282 48.1944 16.8812C47.9914 17.169 48.0013 17.3653 48.1988 17.6469C50.3336 20.7077 52.4541 23.7766 54.5791 26.8435C54.6456 26.9391 54.7079 27.0367 54.8224 27.2094C53.0337 27.2094 51.3464 27.1981 49.6591 27.2197C49.3218 27.2238 49.1887 27.0686 49.0348 26.8435C47.7623 24.9843 46.481 23.1291 45.2008 21.274C45.1255 21.165 45.0501 21.0551 44.9399 20.8958C43.7896 22.5721 42.5814 24.1466 41.597 25.8363C40.9454 26.9545 40.1629 27.2597 38.8467 27.2433C32.8179 27.1683 26.7879 27.2012 20.7591 27.2248C20.1861 27.2279 20.0868 27.0768 20.0879 26.5763C20.1075 20.5864 20.1065 14.5975 20.089 8.60764C20.0879 8.13486 20.1949 7.98583 20.7253 7.98892C25.2109 8.0105 28.926 8.00742 33.4116 7.992C33.8154 7.98994 34.0511 8.10094 34.2694 8.41853C35.0236 9.51414 35.8126 10.5892 36.5908 11.6776C36.378 11.8102 36.187 11.7537 36.008 11.7547C32.2318 11.7814 29.2272 11.8123 25.451 11.8143C24.9544 11.8143 24.7776 11.8965 24.7787 12.4073C24.782 15.9028 24.5953 19.3962 24.6401 22.8927C24.6444 23.2894 24.7187 23.4169 25.1749 23.4148C29.201 23.3953 33.2282 23.3963 37.2544 23.4128C37.6669 23.4148 37.8841 23.2822 38.098 22.9688C39.28 21.2401 40.474 19.5175 41.693 17.8124C41.931 17.4804 41.9342 17.2759 41.6887 16.9439C39.9021 14.5328 35.554 8.45758 32.975 4.88914L36.6672 2.88086C37.9856 4.60753 43.4098 11.6694 44.6474 13.3221C44.8941 13.6509 44.9716 13.6633 45.2062 13.3118C46.3009 11.6704 47.4337 10.0517 48.5328 8.41236C48.7314 8.11636 48.9355 7.98994 49.3229 7.99097C55.5188 8.00433 61.1361 8.00639 67.333 7.98789C67.8253 7.98583 67.9169 8.12766 67.9006 8.54905C67.8656 9.43294 67.8667 10.3189 67.9006 11.2007Z" fill="#0C78BD"/>
<path id="Vector_2" d="M0.742474 7.99509C1.88952 8.01257 3.03767 8.01976 4.18362 7.99098C4.54597 7.98173 4.69549 8.16776 4.87338 8.38873C8.0657 12.3354 11.2602 16.28 14.4601 20.2328C14.6631 20.1342 14.5584 19.9584 14.5606 19.8289C14.6053 16.059 14.6479 12.2902 14.6697 8.52029C14.6719 8.12768 14.7461 7.97762 15.2067 7.98996C16.3734 8.02387 17.5433 8.01668 18.7111 7.99304C19.0571 7.98584 19.1269 8.08554 19.1269 8.38873C19.1182 14.5338 19.1182 20.6799 19.1269 26.825C19.1269 27.1303 19.0538 27.2248 18.71 27.2186C17.4593 27.196 16.2064 27.195 14.9556 27.2207C14.5977 27.2279 14.4405 27.0532 14.2604 26.8291C11.2755 23.1291 8.28725 19.4312 5.29793 15.7332C5.17679 15.5832 5.0491 15.4383 4.83737 15.1885C4.83737 19.1146 4.82754 22.8825 4.84937 26.6503C4.85265 27.119 4.72059 27.2361 4.23383 27.2217C3.06713 27.1858 1.89826 27.1981 0.730469 27.2186" fill="#0C78BD"/>
<path id="Vector_3" d="M35.3718 15.9361L37.0711 19.0605C37.1387 19.1859 37.0438 19.3339 36.8943 19.3349C34.3459 19.3452 26.74 19.3318 24.6903 19.3483H24.6598C24.2571 19.3473 24.1152 19.2537 24.1305 18.8385C24.1665 17.8786 24.1665 16.9155 24.1305 15.9556C24.1141 15.5239 24.2221 15.3944 24.7056 15.3996H24.746C26.693 15.4201 31.9568 15.4098 34.467 15.4139C34.849 15.415 35.1971 15.6164 35.3718 15.9361Z" fill="#0C78BD"/>
<path id="Vector_4" d="M70.6355 9.70867H69.9927C69.8213 9.70867 69.6816 9.57814 69.6816 9.41678V8.81142C69.6816 8.65006 69.8202 8.51953 69.9927 8.51953H70.6355C70.8069 8.51953 70.9455 8.65006 70.9455 8.81142V9.41678C70.9455 9.57814 70.8069 9.70867 70.6355 9.70867Z" fill="#0C78BD"/>
<path id="Vector_5" d="M72.6904 10.0363H71.7475C71.5761 10.0363 71.4375 9.90575 71.4375 9.74439V8.85639C71.4375 8.69503 71.5761 8.56348 71.7475 8.56348H72.6904C72.8618 8.56348 73.0004 8.694 73.0004 8.85639V9.74439C73.0004 9.90473 72.8618 10.0363 72.6904 10.0363Z" fill="#0C78BD"/>
<path id="Vector_6" d="M70.4859 11.1737H70.0482C69.8769 11.1737 69.7383 11.0432 69.7383 10.8818V10.4697C69.7383 10.3083 69.8769 10.1768 70.0482 10.1768H70.4859C70.6572 10.1768 70.7958 10.3073 70.7958 10.4697V10.8818C70.7969 11.0432 70.6572 11.1737 70.4859 11.1737Z" fill="#0C78BD"/>
<g id="Group">
<g id="Group_2">
<path id="Vector_7" d="M6.62473 37.5022C4.8665 37.6502 3.40732 37.7252 2.24826 37.7252C1.47556 37.7252 0.908036 37.5546 0.544604 37.2123C0.182263 36.8711 0 36.3357 0 35.608V32.0437C0 31.2636 0.18772 30.6973 0.562066 30.3447C0.936413 29.9922 1.53777 29.8154 2.36613 29.8154H6.62473V31.3746H2.8398C2.36722 31.3746 2.13039 31.5976 2.13039 32.0426V35.607C2.13039 35.7776 2.18387 35.9132 2.28974 36.014C2.3956 36.1147 2.53202 36.164 2.69791 36.164C2.86381 36.164 3.04498 36.162 3.24252 36.1589C3.44006 36.1548 3.64524 36.1496 3.85806 36.1424C4.07088 36.1352 4.28589 36.128 4.50307 36.1198C4.72026 36.1126 4.99965 36.0972 5.34235 36.0756C5.68505 36.054 6.11287 36.0273 6.62582 35.9975V37.5022H6.62473Z" fill="#AD206C"/>
<path id="Vector_8" d="M20.9134 35.4967C20.9134 36.2767 20.7257 36.843 20.3514 37.1956C19.977 37.5481 19.3757 37.7249 18.5473 37.7249H15.5907C14.7624 37.7249 14.161 37.5481 13.7867 37.1956C13.4123 36.843 13.2246 36.2767 13.2246 35.4967V31.9323C13.2246 31.1522 13.4123 30.5859 13.7867 30.2334C14.161 29.8809 14.7624 29.7041 15.5907 29.7041H18.5473C19.3757 29.7041 19.977 29.8809 20.3514 30.2334C20.7257 30.5859 20.9134 31.1522 20.9134 31.9323V35.4967ZM18.7841 31.9323C18.7841 31.4863 18.5473 31.2643 18.0747 31.2643H16.0644C15.5918 31.2643 15.355 31.4873 15.355 31.9323V35.4967C15.355 35.9417 15.5918 36.1647 16.0644 36.1647H18.0747C18.5473 36.1647 18.7841 35.9417 18.7841 35.4967V31.9323Z" fill="#AD206C"/>
<path id="Vector_9" d="M29.228 37.6131H26.9219L30.0563 29.8164H32.4225L35.5569 37.6142H33.2508L32.7182 36.2215H29.7606L29.228 37.6131ZM30.2932 34.7723H32.1856L31.2394 32.1546L30.2932 34.7723Z" fill="#AD206C"/>
<path id="Vector_10" d="M48.1892 37.5022C46.431 37.6502 44.9718 37.7252 43.8127 37.7252C43.04 37.7252 42.4725 37.5546 42.1091 37.2123C41.7467 36.8711 41.5645 36.3357 41.5645 35.608V32.0437C41.5645 31.2636 41.7522 30.6973 42.1265 30.3447C42.5009 29.9922 43.1022 29.8154 43.9306 29.8154H48.1892V31.3746H44.4042C43.9317 31.3746 43.6948 31.5976 43.6948 32.0426V35.607C43.6948 35.7776 43.7483 35.9132 43.8542 36.014C43.9601 36.1147 44.0965 36.164 44.2624 36.164C44.4283 36.164 44.6094 36.162 44.807 36.1589C45.0045 36.1548 45.2097 36.1496 45.4225 36.1424C45.6353 36.1352 45.8503 36.128 46.0675 36.1198C46.2847 36.1126 46.5641 36.0972 46.9068 36.0756C47.2495 36.053 47.6773 36.0273 48.1903 35.9975V37.5022H48.1892Z" fill="#AD206C"/>
<path id="Vector_11" d="M62.2425 37.6131H60.1132V34.4383H57.1566V37.6131H55.0273V29.8164H57.1566V32.8792H60.1132V29.8164H62.2425V37.6131Z" fill="#AD206C"/>
</g>
</g>
<path id="Vector_12" d="M31.9749 0L31.3691 5.76275L38.2853 2.00211L31.9749 0Z" fill="#0C78BD"/>
</g>
</svg>
